HIERARCHY
ROOT Hips
{
	OFFSET 0.000000 0.000000 0.000000 
	CHANNELS 6 Xposition Yposition Zposition Yrotation Zrotation Xrotation 
	JOINT Lumbar
	{
		OFFSET 0.000000 0.000000 0.000000 
		CHANNELS 3 Zrotation Xrotation Yrotation
		JOINT Neck
		{
			OFFSET 0.000000 0.445665 0.000000 
			CHANNELS 3 Zrotation Xrotation Yrotation
			End Site
			{
				OFFSET 0.000000 0.227535 0.000000 
			}
		}
		JOINT RightShoulder
		{
			OFFSET 0.019635 0.377685 0.194865 
			CHANNELS 3 Zrotation Xrotation Yrotation
			JOINT RightElbow
			{
				OFFSET 0.000000 -0.243375 0.000000 
				CHANNELS 2 Zrotation Yrotation
				JOINT RightWrist
				{
					OFFSET 0.000000 -0.264825 0.000000 
					CHANNELS 2 Zrotation Xrotation
					End Site
					{
						OFFSET 0.006600 -0.176220 0.000990 
					}
				}
			}
		}
		JOINT LeftShoulder
		{
			OFFSET 0.019635 0.377685 -0.194865 
			CHANNELS 3 Zrotation Xrotation Yrotation
			JOINT LeftElbow
			{
				OFFSET 0.000000 -0.243375 0.000000 
				CHANNELS 2 Zrotation Yrotation
				JOINT LeftWrist
				{
					OFFSET 0.000000 -0.264825 0.000000 
					CHANNELS 2 Zrotation Xrotation
					End Site
					{
						OFFSET 0.006600 -0.176220 -0.000990 
					}
				}
			}
		}
	}
	JOINT RightHip
	{
		OFFSET 0.052140 -0.069960 0.075570 
		CHANNELS 3 Zrotation Xrotation Yrotation
		JOINT RightKnee
		{
			OFFSET 0.000000 -0.402270 0.000000 
			CHANNELS 1 Zrotation
			JOINT RightAnkle
			{
				OFFSET 0.000000 -0.404085 0.000000 
				CHANNELS 3 Zrotation Xrotation Yrotation
				End Site
				{
					OFFSET 0.204105 -0.089430 0.008415 
				}
			}
		}
	}
	JOINT LeftHip
	{
		OFFSET 0.052140 -0.069960 -0.075570 
		CHANNELS 3 Zrotation Xrotation Yrotation
		JOINT LeftKnee
		{
			OFFSET 0.000000 -0.402270 0.000000 
			CHANNELS 1 Zrotation
			JOINT LeftAnkle
			{
				OFFSET 0.000000 -0.404085 0.000000 
				CHANNELS 3 Zrotation Xrotation Yrotation
				End Site
				{
					OFFSET 0.204105 -0.089430 -0.008415 
				}
			}
		}
	}
}
MOTION
Frames: 31
Frame Time: 0.02
-0.46878 0.93228 0.00786 616.88019 0 -4.04728 -24.72203 21.21318 -0.10933 0.87176 -6.50382 -1.88071 29.69926 -19.96662 -20.71282 18.61172 76.29871 -5.78822 2.20826 16.47336 18.47232 -60.1332 76.50879 -79.96333 -26.51909 3.53285 14.3893 -0.14873 -3.94935 -23.81941 0.9944 -1.39367 2.5686 17.76501 4.42545 10.69527 -34.7016 14.42058 10.81736 8.42415
-0.46167 0.93279 0.00887 616.90295 0 -3.80183 -24.56313 21.34922 -0.21673 0.29483 -6.08349 -2.11029 30.34463 -19.78 -19.76398 18.77514 76.21038 -6.16017 2.13926 16.9284 17.91236 -60.0478 75.6601 -80.97777 -26.63751 3.66165 14.32299 -0.65463 -3.1744 -23.61986 0.8035 -1.57347 2.05433 17.92086 4.91674 9.64566 -35.8114 14.51163 10.67662 8.21734
-0.45409 0.93391 0.01046 617.08872 0 -3.49472 -24.2307 21.41871 -0.4497 -0.5013 -5.58828 -2.49395 31.04383 -19.45962 -18.51422 18.98943 76.13434 -6.45468 2.05272 17.55353 17.19994 -59.95725 74.54532 -82.04297 -26.65364 3.79582 14.10884 -1.20924 -2.19591 -23.24835 0.52432 -1.85711 1.20015 17.90803 5.41338 7.6398 -36.73473 14.4928 9.73691 7.14639
-0.44666 0.93472 0.01179 617.19155 0 -3.22165 -23.98038 21.51348 -0.62004 -1.17764 -5.14603 -2.79697 31.68899 -19.18091 -17.39333 19.17508 76.04958 -6.77767 1.97028 18.07965 16.58894 -59.87146 73.59167 -83.03413 -26.71817 3.92034 13.95754 -1.74457 -1.32561 -22.94095 0.27886 -2.08429 0.52381 17.95843 5.92448 6.12109 -37.70226 14.52069 9.21416 6.5317
-0.4395 0.93564 0.01311 617.32197 0 -2.92299 -23.71904 21.62806 -0.81199 -1.9449 -4.61792 -3.14247 32.46949 -18.98223 -16.29537 19.3867 75.97634 -7.13236 1.90473 18.70444 15.83917 -59.7745 72.46674 -84.23802 -26.78087 4.07479 13.83289 -2.27329 -0.38391 -22.70299 0.06 -2.34624 -0.23462 18.06772 6.37286 4.40133 -38.85247 14.56095 8.49215 5.67814
-0.43165 0.93649 0.01459 617.43913 0 -2.66406 -23.43786 21.68611 -0.98972 -2.57265 -4.25157 -3.4371 32.97708 -18.587 -15.08167 19.55553 75.88234 -7.40168 1.80035 19.16192 15.34081 -59.69967 71.63285 -85.01568 -26.82093 4.16902 13.61537 -2.82518 0.45517 -22.27869 -0.23372 -2.56237 -0.9099 18.01463 6.94866 2.85985 -39.57343 14.55066 7.98238 5.10232
-0.42213 0.9371 0.01634 617.45902 0 -2.51785 -23.15139 21.60297 -1.09441 -2.76118 -4.36983 -3.55198 32.71493 -17.66172 -13.62943 19.59099 75.73242 -7.44983 1.58428 19.10939 15.60626 -59.69076 71.70701 -84.55551 -26.81994 4.08744 13.16543 -3.43037 0.96416 -21.34425 -0.72969 -2.62334 -1.26371 17.54091 7.88851 2.11193 -39.15692 14.4176 8.28147 5.54474
-0.41189 0.9376 0.01824 617.46521 0 -2.416 -22.8495 21.46555 -1.18114 -2.8009 -4.65087 -3.6109 32.17535 -16.54721 -12.07225 19.58194 75.56087 -7.41484 1.33124 18.88279 16.12475 -59.7039 72.07709 -83.67304 -26.79917 3.94647 12.62797 -4.05636 1.36147 -20.23333 -1.29512 -2.63578 -1.52623 16.91252 8.95199 1.56279 -38.31433 14.23961 8.81281 6.28499
-0.4019 0.93808 0.02008 617.49205 0 -2.30146 -22.5496 21.35411 -1.27848 -2.90827 -4.84572 -3.69687 31.76315 -15.53178 -10.55858 19.5944 75.39632 -7.42053 1.10059 18.73888 16.50721 -59.7047 72.28605 -83.01587 -26.78917 3.8381 12.13729 -4.67109 1.80738 -19.22589 -1.81739 -2.67317 -1.83818 16.36214 9.95006 0.87508 -37.6618 14.08856 9.21652 6.85957
-0.39223 0.93891 0.02189 617.46236 0 -2.15273 -22.26427 21.23511 -1.37032 -3.02367 -5.08961 -3.78158 31.34733 -14.45485 -9.04785 19.60242 75.2432 -7.4122 0.84552 18.58559 16.97338 -59.71476 72.59622 -82.22108 -26.76923 3.70655 11.6124 -5.29467 2.27009 -18.11427 -2.39077 -2.70196 -2.12713 15.76962 10.99092 0.35367 -37.01182 13.90521 9.68682 7.53414
-0.38171 0.93895 0.02378 617.54655 0 -2.08722 -21.94791 21.11943 -1.46714 -3.0837 -5.27074 -3.85336 30.87265 -13.46487 -7.51504 19.60951 75.06212 -7.4133 0.63309 18.40869 17.32687 -59.71125 72.77171 -81.6101 -26.76531 3.60871 11.13945 -5.90481 2.66799 -17.18013 -2.87415 -2.7357 -2.43923 15.23501 11.96751 -0.44921 -36.26557 13.78108 10.08294 8.08024
-0.36922 0.93694 0.02585 617.93543 0 -2.235 -21.54462 21.02956 -1.58621 -3.02967 -5.24184 -3.90438 30.30086 -12.74441 -5.90638 19.61549 74.79906 -7.47021 0.54463 18.20477 17.31188 -59.66143 72.48418 -81.62544 -26.82133 3.62176 10.83534 -6.46608 2.91805 -16.77793 -3.08305 -2.79519 -2.82652 14.86013 12.77284 -2.11719 -35.2932 13.82238 10.22533 8.21824
-0.35585 0.93412 0.02798 618.44097 0 -2.46624 -21.11274 20.94435 -1.70927 -2.92361 -5.14406 -3.94307 29.67973 -12.12201 -4.28855 19.62362 74.51015 -7.5384 0.50111 17.98339 17.17468 -59.59791 72.05581 -81.837 -26.89233 3.67015 10.58656 -7.014 3.10483 -16.56155 -3.20074 -2.8606 -3.24125 14.55773 13.50188 -4.06146 -34.2533 13.92746 10.28554 8.2164
-0.34275 0.9316 0.03006 618.90098 0 -2.66342 -20.69777 20.85547 -1.82749 -2.83847 -5.07608 -3.98616 29.08227 -11.46617 -2.70268 19.63665 74.24001 -7.59528 0.4388 17.77165 17.09127 -59.5429 71.70551 -81.94857 -26.95017 3.70017 10.3105 -7.57226 3.31726 -16.26176 -3.36498 -2.9229 -3.64828 14.24676 14.24249 -5.85096 -33.2854 14.00939 10.38465 8.27118
-0.33021 0.92935 0.03223 619.32924 0 -2.84626 -20.26441 20.77231 -1.95897 -2.75922 -5.01974 -4.03355 28.4692 -10.75578 -0.99435 19.62317 73.9407 -7.67416 0.36776 17.54544 17.02409 -59.47883 71.30579 -82.09188 -27.03524 3.73781 10.04007 -8.11359 3.53973 -15.95119 -3.50806 -2.98611 -4.02983 13.82363 15.08691 -7.76466 -32.12116 14.06352 10.49294 8.36871
-0.31628 0.92636 0.03423 619.85117 0 -3.0776 -19.86431 20.67766 -2.06269 -2.65801 -4.9211 -4.06843 27.88143 -10.18587 0.45811 19.66618 73.69476 -7.71243 0.3267 17.34909 16.89065 -59.43033 70.97196 -82.22019 -27.06599 3.76879 9.7725 -8.68629 3.72682 -15.70969 -3.67529 -3.04846 -4.47509 13.65809 15.69293 -9.47873 -31.36413 14.19321 10.54947 8.33563
-0.29877 0.92149 0.0358 620.60568 0 -3.42772 -19.55033 20.56236 -2.1 -2.50371 -4.71872 -4.08331 27.37034 -9.97077 1.21463 19.86277 73.61458 -7.62436 0.35209 17.22687 16.60555 -59.42594 70.85144 -82.26872 -26.9558 3.77255 9.4986 -9.35128 3.8366 -15.61545 -3.9072 -3.11568 -5.06283 14.14434 15.67974 -10.65157 -31.67174 14.49847 10.57222 8.01639
-0.27989 0.91593 0.03719 621.44982 0 -3.82255 -19.27321 20.43334 -2.10735 -2.33149 -4.47628 -4.0843 26.88959 -9.89554 1.71081 20.11635 73.58612 -7.4978 0.40715 17.13903 16.25724 -59.43793 70.80092 -82.29526 -26.7884 3.7686 9.22696 -10.04674 3.91072 -15.58642 -4.17002 -3.18047 -5.71828 14.8941 15.42513 -11.60106 -32.4049 14.88005 10.52931 7.56254
-0.2616 0.91069 0.03864 622.25156 0 -4.19329 -18.98773 20.30291 -2.12102 -2.17069 -4.25355 -4.08417 26.39875 -9.76421 2.31658 20.34577 73.52713 -7.39657 0.45252 17.04391 15.93472 -59.44383 70.71931 -82.32822 -26.6387 3.76877 8.95426 -10.72785 4.00083 -15.52508 -4.43515 -3.24082 -6.36182 15.55367 15.26663 -12.60196 -32.99923 15.23969 10.45537 7.14128
-0.2434 0.90535 0.0402 623.06518 0 -4.583 -18.6661 20.20494 -2.16515 -1.99126 -4.02119 -4.11433 25.8871 -9.60787 2.95769 20.56936 73.49993 -7.2618 0.48404 16.91073 15.61734 -59.44378 70.63113 -82.38464 -26.52364 3.76802 8.68063 -11.41477 4.09717 -15.47483 -4.63102 -3.32457 -6.93028 16.09824 15.16172 -13.82111 -33.37284 15.55195 10.63039 6.83212
-0.22473 0.90011 0.04149 623.87287 0 -4.94262 -18.42855 20.03599 -2.13924 -1.85069 -3.80147 -4.07904 25.43082 -9.53156 3.46562 20.81673 73.41529 -7.18859 0.55008 16.86786 15.27973 -59.45987 70.57354 -82.38219 -26.3238 3.76626 8.41246 -12.0918 4.1634 -15.42279 -4.97601 -3.35916 -7.66628 16.93473 14.89044 -14.53252 -34.2928 15.97489 10.27896 6.26413
-0.20481 0.89508 0.0421 624.64954 0 -5.2086 -18.41724 19.67503 -1.92256 -1.79086 -3.61583 -3.86 25.08525 -9.67658 3.64828 21.13227 73.1943 -7.28603 0.71104 17.04344 14.86791 -59.51935 70.59647 -82.24127 -25.89429 3.76922 8.1268 -12.77785 4.24014 -15.27766 -5.75665 -3.25668 -8.88742 18.59139 14.20507 -13.86516 -36.74915 16.72945 8.43426 4.97326
-0.18453 0.89025 0.04246 625.41501 0 -5.44217 -18.48874 19.24311 -1.6375 -1.77649 -3.44632 -3.57698 24.80103 -9.89063 3.70972 21.46692 72.90867 -7.44789 0.90438 17.31266 14.44447 -59.59401 70.64595 -82.03721 -25.38344 3.77022 7.85195 -13.44419 4.27464 -15.14011 -6.68062 -3.10523 -10.2672 20.51708 13.36363 -12.69897 -39.7154 17.58373 6.07414 3.43507
-0.16461 0.88551 0.04293 626.18047 0 -5.69003 -18.52056 18.84305 -1.38649 -1.76232 -3.27709 -3.3274 24.51197 -10.04958 3.8406 21.78174 72.62815 -7.58649 1.07797 17.55431 14.04957 -59.65995 70.67531 -81.84907 -24.91565 3.76826 7.5933 -14.09171 4.27012 -15.04668 -7.51914 -2.97727 -11.54883 22.26851 12.60298 -11.78041 -42.36346 18.36318 3.98515 2.03751
-0.14377 0.87995 0.04338 626.97144 0 -5.94177 -18.56266 18.44358 -1.12092 -1.66078 -3.07546 -3.05841 24.12709 -10.31259 3.90211 22.14468 72.44634 -7.70014 1.27323 17.73536 13.55563 -59.73422 70.74109 -81.71506 -24.41893 3.78228 7.24697 -14.86008 4.50041 -14.75865 -8.44548 -2.84356 -12.94367 24.25129 11.79193 -10.76602 -45.39557 19.27142 1.73252 0.51521
-0.12482 0.87619 0.04382 627.70447 0 -6.17663 -18.60209 18.02691 -0.87103 -1.75056 -2.94422 -2.81547 23.95542 -10.37476 4.08234 22.41233 72.04983 -7.87934 1.43146 18.06255 13.26424 -59.79443 70.73636 -81.45252 -23.96544 3.76267 7.08414 -15.36851 4.24422 -14.87206 -9.22126 -2.71079 -14.13848 25.80943 11.05231 -9.83545 -47.73802 19.93225 -0.29385 -0.8033
-0.11102 0.87723 0.04427 628.28736 0 -6.37638 -18.61728 17.57402 -0.67138 -2.37219 -3.01598 -2.65481 24.36224 -9.85391 4.62478 22.40229 71.01502 -8.24313 1.47198 18.78607 13.55069 -59.81312 70.53085 -80.86006 -23.63808 3.65052 7.43928 -15.19061 2.54895 -16.13234 -9.55641 -2.58808 -14.74998 26.15497 10.54634 -9.2604 -48.09442 19.90074 -1.62893 -1.50534
-0.09917 0.88012 0.04471 628.81021 0 -6.55915 -18.62589 17.10743 -0.49204 -3.18199 -3.15562 -2.52377 24.98036 -9.13069 5.29141 22.2973 69.77649 -8.6674 1.47518 19.65002 14.03844 -59.81687 70.25322 -80.13945 -23.35963 3.50477 7.97596 -14.74684 0.38442 -17.78797 -9.73249 -2.46898 -15.15274 26.05771 10.11916 -8.78747 -47.72919 19.61372 -2.70752 -1.99171
-0.08653 0.88225 0.04517 629.35585 0 -6.74737 -18.63536 16.65121 -0.30977 -3.89631 -3.25644 -2.38258 25.4986 -8.50613 5.89924 22.24196 68.67248 -9.05126 1.50049 20.43958 14.42448 -59.82674 70.00775 -79.47047 -23.06791 3.37441 8.42059 -14.4069 -1.49414 -19.23657 -9.97526 -2.35109 -15.64574 26.14492 9.65835 -8.26772 -47.66363 19.43316 -3.86351 -2.57177
-0.07347 0.88404 0.04554 629.92147 0 -6.9449 -18.65762 16.17515 -0.09775 -4.65495 -3.39248 -2.2247 26.03574 -7.85301 6.51221 22.15979 67.39355 -9.49124 1.50597 21.27829 14.8546 -59.84001 69.76513 -78.82429 -22.73618 3.24306 8.90649 -14.13724 -3.67667 -20.80321 -10.24894 -2.21903 -16.1644 26.31252 9.18291 -7.73277 -47.73461 19.29637 -5.20093 -3.17912
-0.06177 0.88698 0.0461 630.42967 0 -7.11836 -18.6495 15.73792 0.04565 -5.36452 -3.46979 -2.11006 26.58228 -7.2139 7.14611 22.11083 66.42595 -9.8287 1.54249 22.04523 15.2392 -59.84242 69.49998 -78.10463 -22.49963 3.10636 9.34866 -13.65932 -5.3426 -22.21496 -10.41579 -2.11851 -16.57725 26.2039 8.75854 -7.25953 -47.34426 19.00707 -6.09524 -3.67477
